<?xml version="1.0" encoding="iso-8859-1"?>
<!-- Generator: Adobe Illustrator 19.0.0, SVG Export Plug-In . SVG Version: 6.00 Build 0)  -->
<svg version="1.1" id="Layer_1" xmlns="http://www.w3.org/2000/svg" xmlns:xlink="http://www.w3.org/1999/xlink" x="0px" y="0px"
	 viewBox="0 0 512 512" style="enable-background:new 0 0 512 512;" xml:space="preserve">
<g>
	<g>
		<path d="M456.414,247.911h-252.43c-5.633,0-10.199,4.566-10.199,10.199v125.45c0,5.633,4.566,10.199,10.199,10.199h252.43
			c5.633,0,10.199-4.566,10.199-10.199V258.11C466.614,252.477,462.047,247.911,456.414,247.911z M446.215,373.361H214.183V268.309
			h232.032V373.361z"/>
	</g>
</g>
<g>
	<g>
		<path d="M381.45,279.529h-16.319c-5.633,0-10.199,4.566-10.199,10.199c0,5.633,4.566,10.199,10.199,10.199h16.319
			c5.633,0,10.199-4.566,10.199-10.199C391.649,284.095,387.083,279.529,381.45,279.529z"/>
	</g>
</g>
<g>
	<g>
		<path d="M328.414,279.529h-89.753c-5.633,0-10.199,4.566-10.199,10.199c0,5.633,4.566,10.199,10.199,10.199h89.753
			c5.633,0,10.199-4.566,10.199-10.199C338.614,284.095,334.047,279.529,328.414,279.529z"/>
	</g>
</g>
<g>
	<g>
		<path d="M85.673,333.584c-5.633,0-10.199,4.566-10.199,10.199v11.219c0,5.633,4.566,10.199,10.199,10.199
			c5.633,0,10.199-4.566,10.199-10.199v-11.219C95.872,338.151,91.306,333.584,85.673,333.584z"/>
	</g>
</g>
<g>
	<g>
		<path d="M501.801,55.005H10.199C4.566,55.005,0,59.572,0,65.205v381.591c0,5.633,4.566,10.199,10.199,10.199h491.602
			c5.633,0,10.199-4.566,10.199-10.199V65.205C512,59.572,507.434,55.005,501.801,55.005z M430.109,75.404h61.493v89.894v0.871
			c0,16.954-13.792,30.747-30.747,30.747s-30.747-13.792-30.747-30.747V75.404z M348.175,75.404h61.493v90.765
			c0,16.954-13.792,30.747-30.747,30.747c-16.953,0-30.747-13.792-30.747-30.747V75.404z M266.156,75.404h61.493v90.765
			c0,16.954-13.792,30.747-30.747,30.747s-30.747-13.792-30.747-30.747V75.404z M184.223,75.404h61.493v90.765
			c0,16.954-13.792,30.747-30.747,30.747c-16.954,0-30.747-13.792-30.747-30.747V75.404z M102.332,75.404h61.493v90.765
			c0,16.954-13.792,30.747-30.747,30.747c-16.953,0-30.747-13.792-30.747-30.747V75.404z M20.398,165.297V75.404h61.493v90.765
			c0,16.954-13.792,30.747-30.747,30.747c-16.954,0-30.746-13.793-30.746-30.747V165.297z M147.888,436.596H66.295V267.289h81.594
			V436.596z M491.603,436.596H168.287V257.09c0-5.633-4.566-10.199-10.199-10.199H56.096c-5.633,0-10.199,4.566-10.199,10.199
			v179.506H20.398V207.009c8.564,6.464,19.214,10.304,30.746,10.304c16.742,0,31.631-8.086,40.967-20.559
			c9.335,12.473,24.225,20.559,40.967,20.559c16.73,0,31.608-8.075,40.946-20.531c9.337,12.456,24.216,20.531,40.946,20.531
			c16.742,0,31.631-8.086,40.967-20.559c9.335,12.473,24.225,20.559,40.967,20.559c16.769,0,31.677-8.112,41.009-20.618
			c9.333,12.505,24.241,20.618,41.009,20.618c16.742,0,31.631-8.086,40.966-20.559c9.335,12.472,24.225,20.559,40.967,20.559
			c11.532,0,22.182-3.84,30.747-10.304V436.596z"/>
	</g>
</g>
<g>
</g>
<g>
</g>
<g>
</g>
<g>
</g>
<g>
</g>
<g>
</g>
<g>
</g>
<g>
</g>
<g>
</g>
<g>
</g>
<g>
</g>
<g>
</g>
<g>
</g>
<g>
</g>
<g>
</g>
</svg>
